ISO-10303-21;
HEADER;
FILE_DESCRIPTION (( 'STEP AP214' ),
    '1' );
FILE_NAME ('2512Range 4.STEP',
    '2023-04-14T16:01:56',
    ( '' ),
    ( '' ),
    'SwSTEP 2.0',
    'SolidWorks 2021',
    '' );
FILE_SCHEMA (( 'AUTOMOTIVE_DESIGN' ));
ENDSEC;

DATA;
#1 = LINE ( 'NONE', #128, #241 ) ;
#2 = ADVANCED_FACE ( 'NONE', ( #216 ), #465, .F. ) ;
#3 = VERTEX_POINT ( 'NONE', #156 ) ;
#4 = DIRECTION ( 'NONE',  ( 0.000000000000000000, -0.000000000000000000, -1.000000000000000000 ) ) ;
#5 = CARTESIAN_POINT ( 'NONE',  ( 0.09499999999999998723, 0.000000000000000000, -0.06250000000000000000 ) ) ;
#6 = AXIS2_PLACEMENT_3D ( 'NONE', #49, #45, #545 ) ;
#7 = EDGE_LOOP ( 'NONE', ( #13, #246, #380, #280 ) ) ;
#8 = ORIENTED_EDGE ( 'NONE', *, *, #261, .F. ) ;
#9 = SURFACE_SIDE_STYLE ('',( #393 ) ) ;
#10 = ORIENTED_EDGE ( 'NONE', *, *, #451, .F. ) ;
#11 = LENGTH_MEASURE_WITH_UNIT ( LENGTH_MEASURE( 0.02539999999999999897 ), #395 );
#12 = PLANE ( 'NONE',  #309 ) ;
#13 = ORIENTED_EDGE ( 'NONE', *, *, #22, .F. ) ;
#14 = EDGE_LOOP ( 'NONE', ( #256, #388, #336, #54 ) ) ;
#15 = SURFACE_SIDE_STYLE ('',( #127 ) ) ;
#16 = VECTOR ( 'NONE', #360, 39.37007874015748143 ) ;
#17 = VECTOR ( 'NONE', #306, 39.37007874015748143 ) ;
#18 = ADVANCED_FACE ( 'NONE', ( #375 ), #296, .T. ) ;
#19 = ORIENTED_EDGE ( 'NONE', *, *, #52, .F. ) ;
#20 = PLANE ( 'NONE',  #242 ) ;
#21 = VECTOR ( 'NONE', #194, 39.37007874015748143 ) ;
#22 = EDGE_CURVE ( 'NONE', #423, #294, #460, .T. ) ;
#23 = CARTESIAN_POINT ( 'NONE',  ( 0.1250787401574803004, 0.004724409448818897572, 0.06250000000000000000 ) ) ;
#24 = CARTESIAN_POINT ( 'NONE',  ( -0.1250000000000000000, 0.03500000000000000333, 0.06250000000000000000 ) ) ;
#25 = LINE ( 'NONE', #326, #224 ) ;
#26 = ADVANCED_FACE ( 'NONE', ( #202 ), #285, .F. ) ;
#27 = LINE ( 'NONE', #208, #400 ) ;
#28 = DIRECTION ( 'NONE',  ( 0.000000000000000000, 1.000000000000000000, 0.000000000000000000 ) ) ;
#29 = CARTESIAN_POINT ( 'NONE',  ( -0.09499999999999998723, 0.03500000000000000333, 0.06250000000000000000 ) ) ;
#30 = DIRECTION ( 'NONE',  ( -1.000000000000000000, 0.000000000000000000, -0.000000000000000000 ) ) ;
#31 = EDGE_LOOP ( 'NONE', ( #118, #292, #463, #175 ) ) ;
#32 = DIRECTION ( 'NONE',  ( 0.000000000000000000, -0.000000000000000000, 1.000000000000000000 ) ) ;
#33 = COLOUR_RGB ( '',0.2509803921568627416, 0.2509803921568627416, 0.2509803921568627416 ) ;
#34 = ORIENTED_EDGE ( 'NONE', *, *, #22, .T. ) ;
#35 = DIRECTION ( 'NONE',  ( 0.000000000000000000, 0.000000000000000000, 1.000000000000000000 ) ) ;
#36 = EDGE_CURVE ( 'NONE', #498, #340, #392, .T. ) ;
#37 = CARTESIAN_POINT ( 'NONE',  ( -0.09499999999999998723, 0.03500000000000000333, 0.06250000000000000000 ) ) ;
#38 =( CONVERSION_BASED_UNIT ( 'INCH', #491 ) LENGTH_UNIT ( ) NAMED_UNIT ( #182 ) );
#39 = DIRECTION ( 'NONE',  ( -0.000000000000000000, 1.000000000000000000, -0.000000000000000000 ) ) ;
#40 = ORIENTED_EDGE ( 'NONE', *, *, #374, .T. ) ;
#41 = DIRECTION ( 'NONE',  ( 0.000000000000000000, 1.000000000000000000, 0.000000000000000000 ) ) ;
#42 = DIRECTION ( 'NONE',  ( 0.000000000000000000, 0.000000000000000000, 1.000000000000000000 ) ) ;
#43 = ORIENTED_EDGE ( 'NONE', *, *, #444, .F. ) ;
#44 = LINE ( 'NONE', #452, #263 ) ;
#45 = DIRECTION ( 'NONE',  ( 0.000000000000000000, -1.000000000000000000, 0.000000000000000000 ) ) ;
#46 = VECTOR ( 'NONE', #28, 39.37007874015748143 ) ;
#47 = VERTEX_POINT ( 'NONE', #508 ) ;
#48 = VECTOR ( 'NONE', #148, 39.37007874015748143 ) ;
#49 = CARTESIAN_POINT ( 'NONE',  ( -0.1250000000000000000, 0.03500000000000000333, 0.06250000000000000000 ) ) ;
#50 = VERTEX_POINT ( 'NONE', #330 ) ;
#51 = FILL_AREA_STYLE_COLOUR ( '', #494 ) ;
#52 = EDGE_CURVE ( 'NONE', #258, #353, #499, .T. ) ;
#53 = LINE ( 'NONE', #181, #94 ) ;
#54 = ORIENTED_EDGE ( 'NONE', *, *, #176, .T. ) ;
#55 = EDGE_CURVE ( 'NONE', #340, #384, #334, .T. ) ;
#56 = ORIENTED_EDGE ( 'NONE', *, *, #477, .F. ) ;
#57 =( NAMED_UNIT ( * ) PLANE_ANGLE_UNIT ( ) SI_UNIT ( $, .RADIAN. ) );
#58 = AXIS2_PLACEMENT_3D ( 'NONE', #480, #409, #230 ) ;
#59 =( NAMED_UNIT ( * ) SI_UNIT ( $, .STERADIAN. ) SOLID_ANGLE_UNIT ( ) );
#60 = CARTESIAN_POINT ( 'NONE',  ( 0.09499999999999998723, 0.004724409448818897572, 0.06250000000000000000 ) ) ;
#61 = VECTOR ( 'NONE', #366, 39.37007874015748143 ) ;
#62 =( GEOMETRIC_REPRESENTATION_CONTEXT ( 3 ) GLOBAL_UNCERTAINTY_ASSIGNED_CONTEXT ( ( #448 ) ) GLOBAL_UNIT_ASSIGNED_CONTEXT ( ( #325, #416, #116 ) ) REPRESENTATION_CONTEXT ( 'NONE', 'WORKASPACE' ) );
#63 = CARTESIAN_POINT ( 'NONE',  ( 0.1250000000000000000, 0.03500000000000000333, 0.06250000000000000000 ) ) ;
#64 = ADVANCED_FACE ( 'NONE', ( #346 ), #434, .F. ) ;
#65 = FACE_OUTER_BOUND ( 'NONE', #417, .T. ) ;
#66 = LINE ( 'NONE', #186, #470 ) ;
#67 = EDGE_CURVE ( 'NONE', #454, #340, #213, .T. ) ;
#68 = CARTESIAN_POINT ( 'NONE',  ( -0.09499999999999998723, 0.03500000000000000333, -0.06250000000000000000 ) ) ;
#69 = AXIS2_PLACEMENT_3D ( 'NONE', #81, #41, #209 ) ;
#70 = FACE_OUTER_BOUND ( 'NONE', #517, .T. ) ;
#71 = CARTESIAN_POINT ( 'NONE',  ( 0.09500000000000001499, 0.03500000000000000333, -0.06250000000000000000 ) ) ;
#72 = PLANE ( 'NONE',  #225 ) ;
#73 = CARTESIAN_POINT ( 'NONE',  ( 0.1250000000000000000, 0.03500000000000000333, -0.06250000000000000000 ) ) ;
#74 = CARTESIAN_POINT ( 'NONE',  ( 0.000000000000000000, 0.000000000000000000, 0.06250000000000000000 ) ) ;
#75 = DIRECTION ( 'NONE',  ( -0.000000000000000000, 0.000000000000000000, -1.000000000000000000 ) ) ;
#76 = CARTESIAN_POINT ( 'NONE',  ( 0.09499999999999998723, 0.000000000000000000, 0.06250000000000000000 ) ) ;
#77 = CARTESIAN_POINT ( 'NONE',  ( -0.1250000000000000000, 0.000000000000000000, 0.06250000000000000000 ) ) ;
#78 = ORIENTED_EDGE ( 'NONE', *, *, #130, .F. ) ;
#79 = FACE_OUTER_BOUND ( 'NONE', #474, .T. ) ;
#80 = AXIS2_PLACEMENT_3D ( 'NONE', #123, #505, #125 ) ;
#81 = CARTESIAN_POINT ( 'NONE',  ( 0.1250000000000000000, 0.000000000000000000, 0.06250000000000000000 ) ) ;
#82 = DIRECTION ( 'NONE',  ( 0.000000000000000000, 0.000000000000000000, -1.000000000000000000 ) ) ;
#83 = VECTOR ( 'NONE', #455, 39.37007874015748143 ) ;
#84 = ORIENTED_EDGE ( 'NONE', *, *, #52, .T. ) ;
#85 = VERTEX_POINT ( 'NONE', #91 ) ;
#86 = DIRECTION ( 'NONE',  ( 1.000000000000000000, 0.000000000000000000, 0.000000000000000000 ) ) ;
#87 = ORIENTED_EDGE ( 'NONE', *, *, #166, .T. ) ;
#88 = DIRECTION ( 'NONE',  ( -1.000000000000000000, 0.000000000000000000, -0.000000000000000000 ) ) ;
#89 = ORIENTED_EDGE ( 'NONE', *, *, #240, .F. ) ;
#90 =( NAMED_UNIT ( * ) SI_UNIT ( $, .STERADIAN. ) SOLID_ANGLE_UNIT ( ) );
#91 = CARTESIAN_POINT ( 'NONE',  ( -0.09499999999999998723, 0.000000000000000000, -0.06250000000000000000 ) ) ;
#92 = AXIS2_PLACEMENT_3D ( 'NONE', #63, #312, #75 ) ;
#93 = VERTEX_POINT ( 'NONE', #37 ) ;
#94 = VECTOR ( 'NONE', #472, 39.37007874015748143 ) ;
#95 = FACE_OUTER_BOUND ( 'NONE', #14, .T. ) ;
#96 = ORIENTED_EDGE ( 'NONE', *, *, #100, .F. ) ;
#97 = ADVANCED_FACE ( 'NONE', ( #378 ), #12, .F. ) ;
#98 = ORIENTED_EDGE ( 'NONE', *, *, #444, .T. ) ;
#99 =( CONVERSION_BASED_UNIT ( 'INCH', #11 ) LENGTH_UNIT ( ) NAMED_UNIT ( #402 ) );
#100 = EDGE_CURVE ( 'NONE', #220, #353, #1, .T. ) ;
#101 = EDGE_LOOP ( 'NONE', ( #98, #244, #390, #510 ) ) ;
#102 = ADVANCED_FACE ( 'NONE', ( #95 ), #257, .F. ) ;
#103 = CARTESIAN_POINT ( 'NONE',  ( 0.1250000000000000000, 0.000000000000000000, -0.06250000000000000000 ) ) ;
#104 = STYLED_ITEM ( 'NONE', ( #424 ), #525 ) ;
#105 = DIRECTION ( 'NONE',  ( -1.000000000000000000, -0.000000000000000000, -0.000000000000000000 ) ) ;
#106 = DIRECTION ( 'NONE',  ( 0.000000000000000000, -0.000000000000000000, -1.000000000000000000 ) ) ;
#107 = DIRECTION ( 'NONE',  ( 1.000000000000000000, -0.000000000000000000, -0.000000000000000000 ) ) ;
#108 = DIRECTION ( 'NONE',  ( 1.000000000000000000, 0.000000000000000000, -0.000000000000000000 ) ) ;
#109 = LINE ( 'NONE', #368, #356 ) ;
#110 = VECTOR ( 'NONE', #191, 39.37007874015748143 ) ;
#111 = VECTOR ( 'NONE', #278, 39.37007874015748143 ) ;
#112 = LINE ( 'NONE', #526, #493 ) ;
#113 = EDGE_CURVE ( 'NONE', #498, #114, #119, .T. ) ;
#114 = VERTEX_POINT ( 'NONE', #195 ) ;
#115 = CARTESIAN_POINT ( 'NONE',  ( 0.1250000000000000000, 0.000000000000000000, -0.06250000000000000000 ) ) ;
#116 =( NAMED_UNIT ( * ) SI_UNIT ( $, .STERADIAN. ) SOLID_ANGLE_UNIT ( ) );
#117 =( CONVERSION_BASED_UNIT ( 'INCH', #332 ) LENGTH_UNIT ( ) NAMED_UNIT ( #522 ) );
#118 = ORIENTED_EDGE ( 'NONE', *, *, #55, .F. ) ;
#119 = LINE ( 'NONE', #437, #46 ) ;
#120 = PRESENTATION_STYLE_ASSIGNMENT (( #457 ) ) ;
#121 = EDGE_LOOP ( 'NONE', ( #469, #516, #126, #429 ) ) ;
#122 = DIRECTION ( 'NONE',  ( 1.000000000000000000, 0.000000000000000000, -0.000000000000000000 ) ) ;
#123 = CARTESIAN_POINT ( 'NONE',  ( 0.000000000000000000, 0.000000000000000000, -0.06250000000000000000 ) ) ;
#124 = ORIENTED_EDGE ( 'NONE', *, *, #67, .T. ) ;
#125 = DIRECTION ( 'NONE',  ( 1.000000000000000000, 0.000000000000000000, 0.000000000000000000 ) ) ;
#126 = ORIENTED_EDGE ( 'NONE', *, *, #484, .T. ) ;
#127 = SURFACE_STYLE_FILL_AREA ( #348 ) ;
#128 = CARTESIAN_POINT ( 'NONE',  ( -0.09499999999999998723, 0.03500000000000000333, 0.06250000000000000000 ) ) ;
#129 = FILL_AREA_STYLE_COLOUR ( '', #33 ) ;
#130 = EDGE_CURVE ( 'NONE', #284, #503, #198, .T. ) ;
#131 = VECTOR ( 'NONE', #105, 39.37007874015748143 ) ;
#132 = ORIENTED_EDGE ( 'NONE', *, *, #67, .F. ) ;
#133 = DIRECTION ( 'NONE',  ( -1.000000000000000000, 0.000000000000000000, -0.000000000000000000 ) ) ;
#134 = ORIENTED_EDGE ( 'NONE', *, *, #410, .T. ) ;
#135 = ORIENTED_EDGE ( 'NONE', *, *, #281, .T. ) ;
#136 = CARTESIAN_POINT ( 'NONE',  ( 0.1250000000000000000, 0.000000000000000000, 0.06250000000000000000 ) ) ;
#137 = VECTOR ( 'NONE', #490, 39.37007874015748143 ) ;
#138 = EDGE_CURVE ( 'NONE', #203, #170, #140, .T. ) ;
#139 = CARTESIAN_POINT ( 'NONE',  ( 0.09499999999999998723, 0.03500000000000000333, 0.06250000000000000000 ) ) ;
#140 = LINE ( 'NONE', #23, #252 ) ;
#141 = FACE_OUTER_BOUND ( 'NONE', #178, .T. ) ;
#142 = VECTOR ( 'NONE', #462, 39.37007874015748143 ) ;
#143 = PRODUCT_DEFINITION_FORMATION_WITH_SPECIFIED_SOURCE ( 'ANY', '', #532, .NOT_KNOWN. ) ;
#144 = PRESENTATION_LAYER_ASSIGNMENT (  '', '', ( #483 ) ) ;
#145 = LINE ( 'NONE', #321, #21 ) ;
#146 = DIRECTION ( 'NONE',  ( 0.000000000000000000, -1.000000000000000000, 0.000000000000000000 ) ) ;
#147 = DIRECTION ( 'NONE',  ( 0.000000000000000000, -1.000000000000000000, -0.000000000000000000 ) ) ;
#148 = DIRECTION ( 'NONE',  ( -0.000000000000000000, -0.000000000000000000, -1.000000000000000000 ) ) ;
#149 = PLANE ( 'NONE',  #92 ) ;
#150 = LINE ( 'NONE', #324, #419 ) ;
#151 = AXIS2_PLACEMENT_3D ( 'NONE', #482, #446, #268 ) ;
#152 = AXIS2_PLACEMENT_3D ( 'NONE', #489, #122, #288 ) ;
#153 = FILL_AREA_STYLE_COLOUR ( '', #412 ) ;
#154 = ORIENTED_EDGE ( 'NONE', *, *, #166, .F. ) ;
#155 = DIRECTION ( 'NONE',  ( 0.000000000000000000, 0.000000000000000000, -1.000000000000000000 ) ) ;
#156 = CARTESIAN_POINT ( 'NONE',  ( -0.09499999999999998723, 0.000000000000000000, 0.06250000000000000000 ) ) ;
#157 = SURFACE_STYLE_FILL_AREA ( #426 ) ;
#158 = ADVANCED_FACE ( 'NONE', ( #65 ), #408, .F. ) ;
#159 = VERTEX_POINT ( 'NONE', #533 ) ;
#160 = SURFACE_STYLE_USAGE ( .BOTH. , #415 ) ;
#161 = SHAPE_DEFINITION_REPRESENTATION ( #542, #404 ) ;
#162 = DIRECTION ( 'NONE',  ( 0.000000000000000000, 1.000000000000000000, 0.000000000000000000 ) ) ;
#163 = DIRECTION ( 'NONE',  ( -0.000000000000000000, 0.000000000000000000, 1.000000000000000000 ) ) ;
#164 = EDGE_CURVE ( 'NONE', #423, #165, #318, .T. ) ;
#165 = VERTEX_POINT ( 'NONE', #73 ) ;
#166 = EDGE_CURVE ( 'NONE', #3, #93, #109, .T. ) ;
#167 = DIRECTION ( 'NONE',  ( 0.000000000000000000, 1.000000000000000000, 0.000000000000000000 ) ) ;
#168 = LINE ( 'NONE', #139, #192 ) ;
#169 = COLOUR_RGB ( '',0.7960784313725489669, 0.8235294117647058432, 0.9372549019607843146 ) ;
#170 = VERTEX_POINT ( 'NONE', #538 ) ;
#171 = DIRECTION ( 'NONE',  ( -1.000000000000000000, 0.000000000000000000, 0.000000000000000000 ) ) ;
#172 = PRESENTATION_STYLE_ASSIGNMENT (( #254 ) ) ;
#173 = EDGE_LOOP ( 'NONE', ( #43, #78, #396, #547 ) ) ;
#174 = DIRECTION ( 'NONE',  ( 0.000000000000000000, -1.000000000000000000, -0.000000000000000000 ) ) ;
#175 = ORIENTED_EDGE ( 'NONE', *, *, #359, .T. ) ;
#176 = EDGE_CURVE ( 'NONE', #473, #47, #150, .T. ) ;
#177 = CLOSED_SHELL ( 'NONE', ( #234, #26, #515, #226, #428, #18 ) ) ;
#178 = EDGE_LOOP ( 'NONE', ( #8, #215, #347, #221 ) ) ;
#179 = PLANE ( 'NONE',  #520 ) ;
#180 = ORIENTED_EDGE ( 'NONE', *, *, #464, .T. ) ;
#181 = CARTESIAN_POINT ( 'NONE',  ( 0.09499999999999998723, 0.000000000000000000, 0.06250000000000000000 ) ) ;
#182 = DIMENSIONAL_EXPONENTS ( 1.000000000000000000, 0.000000000000000000, 0.000000000000000000, 0.000000000000000000, 0.000000000000000000, 0.000000000000000000, 0.000000000000000000 ) ;
#183 = AXIS2_PLACEMENT_3D ( 'NONE', #528, #319, #30 ) ;
#184 = MECHANICAL_DESIGN_GEOMETRIC_PRESENTATION_REPRESENTATION (  '', ( #441 ), #357 ) ;
#185 = CARTESIAN_POINT ( 'NONE',  ( -0.1250000000000000000, 0.03500000000000000333, -0.06250000000000000000 ) ) ;
#186 = CARTESIAN_POINT ( 'NONE',  ( 0.1250000000000000000, 0.000000000000000000, 0.06250000000000000000 ) ) ;
#187 = EDGE_CURVE ( 'NONE', #114, #423, #524, .T. ) ;
#188 = LINE ( 'NONE', #486, #432 ) ;
#189 = CARTESIAN_POINT ( 'NONE',  ( -0.09499999999999998723, 0.004724409448818897572, -0.06250000000000000000 ) ) ;
#190 = EDGE_CURVE ( 'NONE', #85, #284, #188, .T. ) ;
#191 = DIRECTION ( 'NONE',  ( 1.000000000000000000, -0.000000000000000000, -0.000000000000000000 ) ) ;
#192 = VECTOR ( 'NONE', #403, 39.37007874015748143 ) ;
#193 = PLANE ( 'NONE',  #406 ) ;
#194 = DIRECTION ( 'NONE',  ( 1.000000000000000000, 0.000000000000000000, 0.000000000000000000 ) ) ;
#195 = CARTESIAN_POINT ( 'NONE',  ( 0.09499999999999998723, 0.03500000000000000333, 0.06250000000000000000 ) ) ;
#196 = FACE_OUTER_BOUND ( 'NONE', #7, .T. ) ;
#197 = CARTESIAN_POINT ( 'NONE',  ( -0.1250000000000000000, 0.000000000000000000, 0.06250000000000000000 ) ) ;
#198 = LINE ( 'NONE', #185, #131 ) ;
#199 = LINE ( 'NONE', #370, #541 ) ;
#200 = ORIENTED_EDGE ( 'NONE', *, *, #484, .F. ) ;
#201 =( GEOMETRIC_REPRESENTATION_CONTEXT ( 3 ) GLOBAL_UNCERTAINTY_ASSIGNED_CONTEXT ( ( #397 ) ) GLOBAL_UNIT_ASSIGNED_CONTEXT ( ( #38, #461, #365 ) ) REPRESENTATION_CONTEXT ( 'NONE', 'WORKASPACE' ) );
#202 = FACE_OUTER_BOUND ( 'NONE', #371, .T. ) ;
#203 = VERTEX_POINT ( 'NONE', #317 ) ;
#204 = CARTESIAN_POINT ( 'NONE',  ( 0.09499999999999998723, 0.000000000000000000, 0.06250000000000000000 ) ) ;
#205 = DIRECTION ( 'NONE',  ( 1.000000000000000000, 0.000000000000000000, 0.000000000000000000 ) ) ;
#206 = EDGE_CURVE ( 'NONE', #258, #249, #361, .T. ) ;
#207 = ORIENTED_EDGE ( 'NONE', *, *, #190, .T. ) ;
#208 = CARTESIAN_POINT ( 'NONE',  ( 0.1250787401574803004, 0.004724409448818897572, -0.06250000000000000000 ) ) ;
#209 = DIRECTION ( 'NONE',  ( 0.000000000000000000, 0.000000000000000000, 1.000000000000000000 ) ) ;
#210 = ADVANCED_FACE ( 'NONE', ( #447 ), #450, .F. ) ;
#211 = ORIENTED_EDGE ( 'NONE', *, *, #303, .F. ) ;
#212 = DIRECTION ( 'NONE',  ( -1.000000000000000000, -0.000000000000000000, -0.000000000000000000 ) ) ;
#213 = LINE ( 'NONE', #115, #322 ) ;
#214 = VECTOR ( 'NONE', #443, 39.37007874015748143 ) ;
#215 = ORIENTED_EDGE ( 'NONE', *, *, #359, .F. ) ;
#216 = FACE_OUTER_BOUND ( 'NONE', #238, .T. ) ;
#217 =( NAMED_UNIT ( * ) PLANE_ANGLE_UNIT ( ) SI_UNIT ( $, .RADIAN. ) );
#218 = ORIENTED_EDGE ( 'NONE', *, *, #138, .F. ) ;
#219 = EDGE_CURVE ( 'NONE', #353, #170, #112, .T. ) ;
#220 = VERTEX_POINT ( 'NONE', #68 ) ;
#221 = ORIENTED_EDGE ( 'NONE', *, *, #164, .T. ) ;
#222 = CARTESIAN_POINT ( 'NONE',  ( -0.09499999999999998723, 0.000000000000000000, 0.06250000000000000000 ) ) ;
#223 = EDGE_CURVE ( 'NONE', #47, #85, #145, .T. ) ;
#224 = VECTOR ( 'NONE', #277, 39.37007874015748143 ) ;
#225 = AXIS2_PLACEMENT_3D ( 'NONE', #420, #108, #35 ) ;
#226 = ADVANCED_FACE ( 'NONE', ( #141 ), #149, .F. ) ;
#227 = LINE ( 'NONE', #24, #433 ) ;
#228 = DIRECTION ( 'NONE',  ( 0.000000000000000000, 1.000000000000000000, 0.000000000000000000 ) ) ;
#229 = CARTESIAN_POINT ( 'NONE',  ( 0.09500000000000001499, 0.03500000000000000333, 0.06250000000000000000 ) ) ;
#230 = DIRECTION ( 'NONE',  ( 0.000000000000000000, 0.000000000000000000, -1.000000000000000000 ) ) ;
#231 = VECTOR ( 'NONE', #4, 39.37007874015748143 ) ;
#232 = DIRECTION ( 'NONE',  ( -1.000000000000000000, -0.000000000000000000, -0.000000000000000000 ) ) ;
#233 = LINE ( 'NONE', #197, #61 ) ;
#234 = ADVANCED_FACE ( 'NONE', ( #540 ), #453, .F. ) ;
#235 = PLANE ( 'NONE',  #58 ) ;
#236 = DIRECTION ( 'NONE',  ( 1.000000000000000000, 0.000000000000000000, 0.000000000000000000 ) ) ;
#237 = CARTESIAN_POINT ( 'NONE',  ( 0.1250000000000000000, 0.000000000000000000, 0.06250000000000000000 ) ) ;
#238 = EDGE_LOOP ( 'NONE', ( #435, #135, #87, #343 ) ) ;
#239 = ORIENTED_EDGE ( 'NONE', *, *, #55, .T. ) ;
#240 = EDGE_CURVE ( 'NONE', #165, #454, #411, .T. ) ;
#241 = VECTOR ( 'NONE', #471, 39.37007874015748143 ) ;
#242 = AXIS2_PLACEMENT_3D ( 'NONE', #222, #521, #262 ) ;
#243 = CARTESIAN_POINT ( 'NONE',  ( -0.1250000000000000000, 0.000000000000000000, 0.06250000000000000000 ) ) ;
#244 = ORIENTED_EDGE ( 'NONE', *, *, #176, .F. ) ;
#245 = FILL_AREA_STYLE ('',( #381 ) ) ;
#246 = ORIENTED_EDGE ( 'NONE', *, *, #187, .F. ) ;
#247 = CARTESIAN_POINT ( 'NONE',  ( 0.000000000000000000, 0.000000000000000000, 0.000000000000000000 ) ) ;
#248 = ORIENTED_EDGE ( 'NONE', *, *, #261, .T. ) ;
#249 = VERTEX_POINT ( 'NONE', #71 ) ;
#250 = ORIENTED_EDGE ( 'NONE', *, *, #240, .T. ) ;
#251 = LINE ( 'NONE', #136, #17 ) ;
#252 = VECTOR ( 'NONE', #358, 39.37007874015748143 ) ;
#253 = CARTESIAN_POINT ( 'NONE',  ( 0.1250787401574803004, 0.004724409448818897572, 0.06250000000000000000 ) ) ;
#254 = SURFACE_STYLE_USAGE ( .BOTH. , #9 ) ;
#255 = MECHANICAL_DESIGN_GEOMETRIC_PRESENTATION_REPRESENTATION (  '', ( #387 ), #297 ) ;
#256 = ORIENTED_EDGE ( 'NONE', *, *, #223, .T. ) ;
#257 = PLANE ( 'NONE',  #398 ) ;
#258 = VERTEX_POINT ( 'NONE', #229 ) ;
#259 = CARTESIAN_POINT ( 'NONE',  ( 0.000000000000000000, 0.000000000000000000, -0.06250000000000000000 ) ) ;
#260 = EDGE_LOOP ( 'NONE', ( #250, #124, #239, #248 ) ) ;
#261 = EDGE_CURVE ( 'NONE', #384, #165, #488, .T. ) ;
#262 = DIRECTION ( 'NONE',  ( 0.000000000000000000, 0.000000000000000000, 1.000000000000000000 ) ) ;
#263 = VECTOR ( 'NONE', #155, 39.37007874015748143 ) ;
#264 = APPLICATION_CONTEXT ( 'automotive_design' ) ;
#265 = DIRECTION ( 'NONE',  ( 0.000000000000000000, 0.000000000000000000, -1.000000000000000000 ) ) ;
#266 = AXIS2_PLACEMENT_3D ( 'NONE', #247, #42, #236 ) ;
#267 = CARTESIAN_POINT ( 'NONE',  ( 0.09499999999999998723, 0.03500000000000000333, 0.06250000000000000000 ) ) ;
#268 = DIRECTION ( 'NONE',  ( 0.000000000000000000, 0.000000000000000000, -1.000000000000000000 ) ) ;
#269 = UNCERTAINTY_MEASURE_WITH_UNIT (LENGTH_MEASURE( 1.000000000000000082E-05 ), #117, 'distance_accuracy_value', 'NONE');
#270 = DIRECTION ( 'NONE',  ( 1.000000000000000000, 0.000000000000000000, 0.000000000000000000 ) ) ;
#271 = EDGE_CURVE ( 'NONE', #249, #220, #25, .T. ) ;
#272 = CARTESIAN_POINT ( 'NONE',  ( 0.1250000000000000000, 0.000000000000000000, -0.06250000000000000000 ) ) ;
#273 = VECTOR ( 'NONE', #282, 39.37007874015748143 ) ;
#274 =( LENGTH_UNIT ( ) NAMED_UNIT ( * ) SI_UNIT ( $, .METRE. ) );
#275 = VECTOR ( 'NONE', #308, 39.37007874015748143 ) ;
#276 = DIRECTION ( 'NONE',  ( 0.000000000000000000, 1.000000000000000000, 0.000000000000000000 ) ) ;
#277 = DIRECTION ( 'NONE',  ( -1.000000000000000000, -0.000000000000000000, -0.000000000000000000 ) ) ;
#278 = DIRECTION ( 'NONE',  ( -0.000000000000000000, -0.000000000000000000, -1.000000000000000000 ) ) ;
#279 = CARTESIAN_POINT ( 'NONE',  ( 0.1250000000000000000, 0.03500000000000000333, 0.06250000000000000000 ) ) ;
#280 = ORIENTED_EDGE ( 'NONE', *, *, #546, .F. ) ;
#281 = EDGE_CURVE ( 'NONE', #473, #3, #233, .T. ) ;
#282 = DIRECTION ( 'NONE',  ( -1.000000000000000000, -0.000000000000000000, -0.000000000000000000 ) ) ;
#283 = SURFACE_SIDE_STYLE ('',( #157 ) ) ;
#284 = VERTEX_POINT ( 'NONE', #536 ) ;
#285 = PLANE ( 'NONE',  #69 ) ;
#286 = PLANE ( 'NONE',  #440 ) ;
#287 = EDGE_LOOP ( 'NONE', ( #207, #10, #154, #180 ) ) ;
#288 = DIRECTION ( 'NONE',  ( 0.000000000000000000, 0.000000000000000000, 1.000000000000000000 ) ) ;
#289 = CARTESIAN_POINT ( 'NONE',  ( 0.1250787401574803004, 0.03500000000000000333, 0.06250000000000000000 ) ) ;
#290 = APPLICATION_PROTOCOL_DEFINITION ( 'draft international standard', 'automotive_design', 1998, #497 ) ;
#291 = FILL_AREA_STYLE ('',( #129 ) ) ;
#292 = ORIENTED_EDGE ( 'NONE', *, *, #36, .F. ) ;
#293 = CARTESIAN_POINT ( 'NONE',  ( 0.09499999999999998723, 0.000000000000000000, -0.06250000000000000000 ) ) ;
#294 = VERTEX_POINT ( 'NONE', #237 ) ;
#295 =( CONVERSION_BASED_UNIT ( 'INCH', #385 ) LENGTH_UNIT ( ) NAMED_UNIT ( #307 ) );
#296 = PLANE ( 'NONE',  #80 ) ;
#297 =( GEOMETRIC_REPRESENTATION_CONTEXT ( 3 ) GLOBAL_UNCERTAINTY_ASSIGNED_CONTEXT ( ( #531 ) ) GLOBAL_UNIT_ASSIGNED_CONTEXT ( ( #99, #57, #90 ) ) REPRESENTATION_CONTEXT ( 'NONE', 'WORKASPACE' ) );
#298 = ORIENTED_EDGE ( 'NONE', *, *, #303, .T. ) ;
#299 =( NAMED_UNIT ( * ) PLANE_ANGLE_UNIT ( ) SI_UNIT ( $, .RADIAN. ) );
#300 = LINE ( 'NONE', #60, #275 ) ;
#301 = EDGE_LOOP ( 'NONE', ( #89, #458, #34, #305 ) ) ;
#302 = PRODUCT_DEFINITION_CONTEXT ( 'detailed design', #264, 'design' ) ;
#303 = EDGE_CURVE ( 'NONE', #438, #220, #199, .T. ) ;
#304 = FACE_OUTER_BOUND ( 'NONE', #287, .T. ) ;
#305 = ORIENTED_EDGE ( 'NONE', *, *, #459, .T. ) ;
#306 = DIRECTION ( 'NONE',  ( -1.000000000000000000, 0.000000000000000000, 0.000000000000000000 ) ) ;
#307 = DIMENSIONAL_EXPONENTS ( 1.000000000000000000, 0.000000000000000000, 0.000000000000000000, 0.000000000000000000, 0.000000000000000000, 0.000000000000000000, 0.000000000000000000 ) ;
#308 = DIRECTION ( 'NONE',  ( 0.000000000000000000, 0.000000000000000000, -1.000000000000000000 ) ) ;
#309 = AXIS2_PLACEMENT_3D ( 'NONE', #253, #511, #32 ) ;
#310 = ADVANCED_FACE ( 'NONE', ( #383 ), #286, .F. ) ;
#311 = LINE ( 'NONE', #316, #214 ) ;
#312 = DIRECTION ( 'NONE',  ( 0.000000000000000000, -1.000000000000000000, -0.000000000000000000 ) ) ;
#313 = CLOSED_SHELL ( 'NONE', ( #518, #158, #210, #310, #439, #97 ) ) ;
#314 = VECTOR ( 'NONE', #147, 39.37007874015748143 ) ;
#315 = PRESENTATION_LAYER_ASSIGNMENT (  '', '', ( #104 ) ) ;
#316 = CARTESIAN_POINT ( 'NONE',  ( -0.1250000000000000000, 0.000000000000000000, -0.06250000000000000000 ) ) ;
#317 = CARTESIAN_POINT ( 'NONE',  ( 0.09500000000000001499, 0.004724409448818897572, 0.06250000000000000000 ) ) ;
#318 = LINE ( 'NONE', #413, #137 ) ;
#319 = DIRECTION ( 'NONE',  ( 0.000000000000000000, 0.000000000000000000, -1.000000000000000000 ) ) ;
#320 = DIRECTION ( 'NONE',  ( 0.000000000000000000, -0.000000000000000000, -1.000000000000000000 ) ) ;
#321 = CARTESIAN_POINT ( 'NONE',  ( -0.1250000000000000000, 0.000000000000000000, -0.06250000000000000000 ) ) ;
#322 = VECTOR ( 'NONE', #171, 39.37007874015748143 ) ;
#323 = AXIS2_PLACEMENT_3D ( 'NONE', #77, #86, #82 ) ;
#324 = CARTESIAN_POINT ( 'NONE',  ( -0.1250000000000000000, 0.000000000000000000, 0.06250000000000000000 ) ) ;
#325 =( CONVERSION_BASED_UNIT ( 'INCH', #331 ) LENGTH_UNIT ( ) NAMED_UNIT ( #405 ) );
#326 = CARTESIAN_POINT ( 'NONE',  ( 0.1250787401574803004, 0.03500000000000000333, -0.06250000000000000000 ) ) ;
#327 = EDGE_CURVE ( 'NONE', #50, #249, #335, .T. ) ;
#328 = ORIENTED_EDGE ( 'NONE', *, *, #219, .T. ) ;
#329 = FACE_OUTER_BOUND ( 'NONE', #31, .T. ) ;
#330 = CARTESIAN_POINT ( 'NONE',  ( 0.09500000000000001499, 0.004724409448818897572, -0.06250000000000000000 ) ) ;
#331 = LENGTH_MEASURE_WITH_UNIT ( LENGTH_MEASURE( 0.02539999999999999897 ), #344 );
#332 = LENGTH_MEASURE_WITH_UNIT ( LENGTH_MEASURE( 0.02539999999999999897 ), #509 );
#333 = ORIENTED_EDGE ( 'NONE', *, *, #374, .F. ) ;
#334 = LINE ( 'NONE', #293, #519 ) ;
#335 = LINE ( 'NONE', #5, #142 ) ;
#336 = ORIENTED_EDGE ( 'NONE', *, *, #281, .F. ) ;
#337 = VECTOR ( 'NONE', #174, 39.37007874015748143 ) ;
#338 =( GEOMETRIC_REPRESENTATION_CONTEXT ( 3 ) GLOBAL_UNCERTAINTY_ASSIGNED_CONTEXT ( ( #487 ) ) GLOBAL_UNIT_ASSIGNED_CONTEXT ( ( #295, #299, #341 ) ) REPRESENTATION_CONTEXT ( 'NONE', 'WORKASPACE' ) );
#339 = CARTESIAN_POINT ( 'NONE',  ( 0.000000000000000000, 0.000000000000000000, 0.06250000000000000000 ) ) ;
#340 = VERTEX_POINT ( 'NONE', #379 ) ;
#341 =( NAMED_UNIT ( * ) SI_UNIT ( $, .STERADIAN. ) SOLID_ANGLE_UNIT ( ) );
#342 = DIRECTION ( 'NONE',  ( 0.000000000000000000, 0.000000000000000000, -1.000000000000000000 ) ) ;
#343 = ORIENTED_EDGE ( 'NONE', *, *, #442, .T. ) ;
#344 =( LENGTH_UNIT ( ) NAMED_UNIT ( * ) SI_UNIT ( $, .METRE. ) );
#345 = PRODUCT_DEFINITION ( 'UNKNOWN', '', #143, #302 ) ;
#346 = FACE_OUTER_BOUND ( 'NONE', #422, .T. ) ;
#347 = ORIENTED_EDGE ( 'NONE', *, *, #187, .T. ) ;
#348 = FILL_AREA_STYLE ('',( #51 ) ) ;
#349 = VECTOR ( 'NONE', #107, 39.37007874015748143 ) ;
#350 = VECTOR ( 'NONE', #445, 39.37007874015748143 ) ;
#351 = ADVANCED_FACE ( 'NONE', ( #427 ), #506, .F. ) ;
#352 = MANIFOLD_SOLID_BREP ( 'Boss-Extrude2', #313 ) ;
#353 = VERTEX_POINT ( 'NONE', #523 ) ;
#354 = ORIENTED_EDGE ( 'NONE', *, *, #36, .T. ) ;
#355 = DIRECTION ( 'NONE',  ( 0.000000000000000000, 0.000000000000000000, -1.000000000000000000 ) ) ;
#356 = VECTOR ( 'NONE', #276, 39.37007874015748143 ) ;
#357 =( GEOMETRIC_REPRESENTATION_CONTEXT ( 3 ) GLOBAL_UNCERTAINTY_ASSIGNED_CONTEXT ( ( #269 ) ) GLOBAL_UNIT_ASSIGNED_CONTEXT ( ( #117, #217, #59 ) ) REPRESENTATION_CONTEXT ( 'NONE', 'WORKASPACE' ) );
#358 = DIRECTION ( 'NONE',  ( -1.000000000000000000, -0.000000000000000000, -0.000000000000000000 ) ) ;
#359 = EDGE_CURVE ( 'NONE', #114, #384, #168, .T. ) ;
#360 = DIRECTION ( 'NONE',  ( 0.000000000000000000, -0.000000000000000000, -1.000000000000000000 ) ) ;
#361 = LINE ( 'NONE', #267, #16 ) ;
#362 = ADVANCED_FACE ( 'NONE', ( #304 ), #20, .F. ) ;
#363 = MECHANICAL_DESIGN_GEOMETRIC_PRESENTATION_REPRESENTATION (  '', ( #104 ), #338 ) ;
#364 = DIRECTION ( 'NONE',  ( 0.000000000000000000, -1.000000000000000000, 0.000000000000000000 ) ) ;
#365 =( NAMED_UNIT ( * ) SI_UNIT ( $, .STERADIAN. ) SOLID_ANGLE_UNIT ( ) );
#366 = DIRECTION ( 'NONE',  ( 1.000000000000000000, 0.000000000000000000, 0.000000000000000000 ) ) ;
#367 = CARTESIAN_POINT ( 'NONE',  ( -0.1250000000000000000, 0.03500000000000000333, -0.06250000000000000000 ) ) ;
#368 = CARTESIAN_POINT ( 'NONE',  ( -0.09499999999999998723, 0.000000000000000000, 0.06250000000000000000 ) ) ;
#369 =( LENGTH_UNIT ( ) NAMED_UNIT ( * ) SI_UNIT ( $, .METRE. ) );
#370 = CARTESIAN_POINT ( 'NONE',  ( -0.09499999999999998723, 0.03500000000000000333, -0.06250000000000000000 ) ) ;
#371 = EDGE_LOOP ( 'NONE', ( #132, #468, #382, #354 ) ) ;
#372 = CARTESIAN_POINT ( 'NONE',  ( -0.1250000000000000000, 0.000000000000000000, 0.06250000000000000000 ) ) ;
#373 = MECHANICAL_DESIGN_GEOMETRIC_PRESENTATION_REPRESENTATION (  '', ( #483 ), #201 ) ;
#374 = EDGE_CURVE ( 'NONE', #203, #258, #53, .T. ) ;
#375 = FACE_OUTER_BOUND ( 'NONE', #260, .T. ) ;
#376 = ORIENTED_EDGE ( 'NONE', *, *, #271, .T. ) ;
#377 = SURFACE_STYLE_FILL_AREA ( #245 ) ;
#378 = FACE_OUTER_BOUND ( 'NONE', #121, .T. ) ;
#379 = CARTESIAN_POINT ( 'NONE',  ( 0.09499999999999998723, 0.000000000000000000, -0.06250000000000000000 ) ) ;
#380 = ORIENTED_EDGE ( 'NONE', *, *, #113, .F. ) ;
#381 = FILL_AREA_STYLE_COLOUR ( '', #169 ) ;
#382 = ORIENTED_EDGE ( 'NONE', *, *, #546, .T. ) ;
#383 = FACE_OUTER_BOUND ( 'NONE', #401, .T. ) ;
#384 = VERTEX_POINT ( 'NONE', #399 ) ;
#385 = LENGTH_MEASURE_WITH_UNIT ( LENGTH_MEASURE( 0.02539999999999999897 ), #274 );
#386 = AXIS2_PLACEMENT_3D ( 'NONE', #530, #146, #320 ) ;
#387 = STYLED_ITEM ( 'NONE', ( #467 ), #529 ) ;
#388 = ORIENTED_EDGE ( 'NONE', *, *, #464, .F. ) ;
#389 = CARTESIAN_POINT ( 'NONE',  ( 0.1250787401574803004, 0.03500000000000000333, -0.06250000000000000000 ) ) ;
#390 = ORIENTED_EDGE ( 'NONE', *, *, #479, .F. ) ;
#391 = ADVANCED_FACE ( 'NONE', ( #475 ), #179, .T. ) ;
#392 = LINE ( 'NONE', #204, #231 ) ;
#393 = SURFACE_STYLE_FILL_AREA ( #291 ) ;
#394 = EDGE_LOOP ( 'NONE', ( #218, #40, #84, #328 ) ) ;
#395 =( LENGTH_UNIT ( ) NAMED_UNIT ( * ) SI_UNIT ( $, .METRE. ) );
#396 = ORIENTED_EDGE ( 'NONE', *, *, #190, .F. ) ;
#397 = UNCERTAINTY_MEASURE_WITH_UNIT (LENGTH_MEASURE( 1.000000000000000082E-05 ), #38, 'distance_accuracy_value', 'NONE');
#398 = AXIS2_PLACEMENT_3D ( 'NONE', #243, #162, #502 ) ;
#399 = CARTESIAN_POINT ( 'NONE',  ( 0.09499999999999998723, 0.03500000000000000333, -0.06250000000000000000 ) ) ;
#400 = VECTOR ( 'NONE', #212, 39.37007874015748143 ) ;
#401 = EDGE_LOOP ( 'NONE', ( #456, #431, #298, #500 ) ) ;
#402 = DIMENSIONAL_EXPONENTS ( 1.000000000000000000, 0.000000000000000000, 0.000000000000000000, 0.000000000000000000, 0.000000000000000000, 0.000000000000000000, 0.000000000000000000 ) ;
#403 = DIRECTION ( 'NONE',  ( 0.000000000000000000, -0.000000000000000000, -1.000000000000000000 ) ) ;
#404 = ADVANCED_BREP_SHAPE_REPRESENTATION ( '2512Range 4', ( #525, #529, #352, #266 ), #62 ) ;
#405 = DIMENSIONAL_EXPONENTS ( 1.000000000000000000, 0.000000000000000000, 0.000000000000000000, 0.000000000000000000, 0.000000000000000000, 0.000000000000000000, 0.000000000000000000 ) ;
#406 = AXIS2_PLACEMENT_3D ( 'NONE', #74, #265, #270 ) ;
#407 = PRODUCT_RELATED_PRODUCT_CATEGORY ( 'part', '', ( #532 ) ) ;
#408 = PLANE ( 'NONE',  #386 ) ;
#409 = DIRECTION ( 'NONE',  ( 1.000000000000000000, 0.000000000000000000, 0.000000000000000000 ) ) ;
#410 = EDGE_CURVE ( 'NONE', #203, #50, #300, .T. ) ;
#411 = LINE ( 'NONE', #272, #314 ) ;
#412 = COLOUR_RGB ( '',0.7960784313725489669, 0.8235294117647058432, 0.9372549019607843146 ) ;
#413 = CARTESIAN_POINT ( 'NONE',  ( 0.1250000000000000000, 0.03500000000000000333, 0.06250000000000000000 ) ) ;
#414 = LINE ( 'NONE', #534, #48 ) ;
#415 = SURFACE_SIDE_STYLE ('',( #377 ) ) ;
#416 =( NAMED_UNIT ( * ) PLANE_ANGLE_UNIT ( ) SI_UNIT ( $, .RADIAN. ) );
#417 = EDGE_LOOP ( 'NONE', ( #19, #425, #376, #436 ) ) ;
#418 = ORIENTED_EDGE ( 'NONE', *, *, #130, .T. ) ;
#419 = VECTOR ( 'NONE', #496, 39.37007874015748143 ) ;
#420 = CARTESIAN_POINT ( 'NONE',  ( 0.09499999999999998723, 0.000000000000000000, 0.06250000000000000000 ) ) ;
#421 = PRESENTATION_LAYER_ASSIGNMENT (  '', '', ( #387 ) ) ;
#422 = EDGE_LOOP ( 'NONE', ( #418, #56, #543, #476 ) ) ;
#423 = VERTEX_POINT ( 'NONE', #478 ) ;
#424 = PRESENTATION_STYLE_ASSIGNMENT (( #160 ) ) ;
#425 = ORIENTED_EDGE ( 'NONE', *, *, #206, .T. ) ;
#426 = FILL_AREA_STYLE ('',( #153 ) ) ;
#427 = FACE_OUTER_BOUND ( 'NONE', #101, .T. ) ;
#428 = ADVANCED_FACE ( 'NONE', ( #196 ), #193, .F. ) ;
#429 = ORIENTED_EDGE ( 'NONE', *, *, #501, .F. ) ;
#430 = CARTESIAN_POINT ( 'NONE',  ( 0.1250000000000000000, 0.000000000000000000, 0.06250000000000000000 ) ) ;
#431 = ORIENTED_EDGE ( 'NONE', *, *, #501, .T. ) ;
#432 = VECTOR ( 'NONE', #228, 39.37007874015748143 ) ;
#433 = VECTOR ( 'NONE', #232, 39.37007874015748143 ) ;
#434 = PLANE ( 'NONE',  #6 ) ;
#435 = ORIENTED_EDGE ( 'NONE', *, *, #479, .T. ) ;
#436 = ORIENTED_EDGE ( 'NONE', *, *, #100, .T. ) ;
#437 = CARTESIAN_POINT ( 'NONE',  ( 0.09499999999999998723, 0.000000000000000000, 0.06250000000000000000 ) ) ;
#438 = VERTEX_POINT ( 'NONE', #189 ) ;
#439 = ADVANCED_FACE ( 'NONE', ( #70 ), #235, .F. ) ;
#440 = AXIS2_PLACEMENT_3D ( 'NONE', #389, #163, #205 ) ;
#441 = STYLED_ITEM ( 'NONE', ( #172 ), #352 ) ;
#442 = EDGE_CURVE ( 'NONE', #93, #159, #227, .T. ) ;
#443 = DIRECTION ( 'NONE',  ( -0.000000000000000000, -1.000000000000000000, -0.000000000000000000 ) ) ;
#444 = EDGE_CURVE ( 'NONE', #503, #47, #311, .T. ) ;
#445 = DIRECTION ( 'NONE',  ( -0.000000000000000000, -0.000000000000000000, -1.000000000000000000 ) ) ;
#446 = DIRECTION ( 'NONE',  ( -1.000000000000000000, 0.000000000000000000, 0.000000000000000000 ) ) ;
#447 = FACE_OUTER_BOUND ( 'NONE', #394, .T. ) ;
#448 = UNCERTAINTY_MEASURE_WITH_UNIT (LENGTH_MEASURE( 1.000000000000000082E-05 ), #325, 'distance_accuracy_value', 'NONE');
#449 = APPLICATION_PROTOCOL_DEFINITION ( 'draft international standard', 'automotive_design', 1998, #264 ) ;
#450 = PLANE ( 'NONE',  #183 ) ;
#451 = EDGE_CURVE ( 'NONE', #93, #284, #485, .T. ) ;
#452 = CARTESIAN_POINT ( 'NONE',  ( -0.09499999999999998723, 0.004724409448818897572, 0.06250000000000000000 ) ) ;
#453 = PLANE ( 'NONE',  #151 ) ;
#454 = VERTEX_POINT ( 'NONE', #103 ) ;
#455 = DIRECTION ( 'NONE',  ( -0.000000000000000000, -1.000000000000000000, -0.000000000000000000 ) ) ;
#456 = ORIENTED_EDGE ( 'NONE', *, *, #327, .F. ) ;
#457 = SURFACE_STYLE_USAGE ( .BOTH. , #283 ) ;
#458 = ORIENTED_EDGE ( 'NONE', *, *, #164, .F. ) ;
#459 = EDGE_CURVE ( 'NONE', #294, #454, #66, .T. ) ;
#460 = LINE ( 'NONE', #430, #337 ) ;
#461 =( NAMED_UNIT ( * ) PLANE_ANGLE_UNIT ( ) SI_UNIT ( $, .RADIAN. ) );
#462 = DIRECTION ( 'NONE',  ( 0.000000000000000000, 1.000000000000000000, 0.000000000000000000 ) ) ;
#463 = ORIENTED_EDGE ( 'NONE', *, *, #113, .T. ) ;
#464 = EDGE_CURVE ( 'NONE', #3, #85, #414, .T. ) ;
#465 = PLANE ( 'NONE',  #481 ) ;
#466 = ORIENTED_EDGE ( 'NONE', *, *, #327, .T. ) ;
#467 = PRESENTATION_STYLE_ASSIGNMENT (( #513 ) ) ;
#468 = ORIENTED_EDGE ( 'NONE', *, *, #459, .F. ) ;
#469 = ORIENTED_EDGE ( 'NONE', *, *, #410, .F. ) ;
#470 = VECTOR ( 'NONE', #106, 39.37007874015748143 ) ;
#471 = DIRECTION ( 'NONE',  ( -0.000000000000000000, -0.000000000000000000, 1.000000000000000000 ) ) ;
#472 = DIRECTION ( 'NONE',  ( 0.000000000000000000, 1.000000000000000000, 0.000000000000000000 ) ) ;
#473 = VERTEX_POINT ( 'NONE', #539 ) ;
#474 = EDGE_LOOP ( 'NONE', ( #134, #466, #507, #333 ) ) ;
#475 = FACE_OUTER_BOUND ( 'NONE', #173, .T. ) ;
#476 = ORIENTED_EDGE ( 'NONE', *, *, #451, .T. ) ;
#477 = EDGE_CURVE ( 'NONE', #159, #503, #495, .T. ) ;
#478 = CARTESIAN_POINT ( 'NONE',  ( 0.1250000000000000000, 0.03500000000000000333, 0.06250000000000000000 ) ) ;
#479 = EDGE_CURVE ( 'NONE', #159, #473, #504, .T. ) ;
#480 = CARTESIAN_POINT ( 'NONE',  ( -0.09499999999999998723, 0.000000000000000000, 0.000000000000000000 ) ) ;
#481 = AXIS2_PLACEMENT_3D ( 'NONE', #339, #342, #88 ) ;
#482 = CARTESIAN_POINT ( 'NONE',  ( 0.1250000000000000000, 0.000000000000000000, 0.06250000000000000000 ) ) ;
#483 = STYLED_ITEM ( 'NONE', ( #120 ), #404 ) ;
#484 = EDGE_CURVE ( 'NONE', #170, #438, #44, .T. ) ;
#485 = LINE ( 'NONE', #29, #350 ) ;
#486 = CARTESIAN_POINT ( 'NONE',  ( -0.09499999999999998723, 0.000000000000000000, -0.06250000000000000000 ) ) ;
#487 = UNCERTAINTY_MEASURE_WITH_UNIT (LENGTH_MEASURE( 1.000000000000000082E-05 ), #295, 'distance_accuracy_value', 'NONE');
#488 = LINE ( 'NONE', #492, #349 ) ;
#489 = CARTESIAN_POINT ( 'NONE',  ( 0.09499999999999998723, 0.000000000000000000, 0.06250000000000000000 ) ) ;
#490 = DIRECTION ( 'NONE',  ( 0.000000000000000000, -0.000000000000000000, -1.000000000000000000 ) ) ;
#491 = LENGTH_MEASURE_WITH_UNIT ( LENGTH_MEASURE( 0.02539999999999999897 ), #369 );
#492 = CARTESIAN_POINT ( 'NONE',  ( 0.1250000000000000000, 0.03500000000000000333, -0.06250000000000000000 ) ) ;
#493 = VECTOR ( 'NONE', #364, 39.37007874015748143 ) ;
#494 = COLOUR_RGB ( '',0.7960784313725489669, 0.8235294117647058432, 0.9372549019607843146 ) ;
#495 = LINE ( 'NONE', #544, #111 ) ;
#496 = DIRECTION ( 'NONE',  ( -0.000000000000000000, -0.000000000000000000, -1.000000000000000000 ) ) ;
#497 = APPLICATION_CONTEXT ( 'automotive_design' ) ;
#498 = VERTEX_POINT ( 'NONE', #76 ) ;
#499 = LINE ( 'NONE', #289, #273 ) ;
#500 = ORIENTED_EDGE ( 'NONE', *, *, #271, .F. ) ;
#501 = EDGE_CURVE ( 'NONE', #50, #438, #27, .T. ) ;
#502 = DIRECTION ( 'NONE',  ( 0.000000000000000000, -0.000000000000000000, 1.000000000000000000 ) ) ;
#503 = VERTEX_POINT ( 'NONE', #367 ) ;
#504 = LINE ( 'NONE', #372, #83 ) ;
#505 = DIRECTION ( 'NONE',  ( 0.000000000000000000, 0.000000000000000000, -1.000000000000000000 ) ) ;
#506 = PLANE ( 'NONE',  #323 ) ;
#507 = ORIENTED_EDGE ( 'NONE', *, *, #206, .F. ) ;
#508 = CARTESIAN_POINT ( 'NONE',  ( -0.1250000000000000000, 0.000000000000000000, -0.06250000000000000000 ) ) ;
#509 =( LENGTH_UNIT ( ) NAMED_UNIT ( * ) SI_UNIT ( $, .METRE. ) );
#510 = ORIENTED_EDGE ( 'NONE', *, *, #477, .T. ) ;
#511 = DIRECTION ( 'NONE',  ( -0.000000000000000000, 1.000000000000000000, 0.000000000000000000 ) ) ;
#512 = ORIENTED_EDGE ( 'NONE', *, *, #219, .F. ) ;
#513 = SURFACE_STYLE_USAGE ( .BOTH. , #15 ) ;
#514 = PRESENTATION_LAYER_ASSIGNMENT (  '', '', ( #441 ) ) ;
#515 = ADVANCED_FACE ( 'NONE', ( #329 ), #537, .F. ) ;
#516 = ORIENTED_EDGE ( 'NONE', *, *, #138, .T. ) ;
#517 = EDGE_LOOP ( 'NONE', ( #512, #96, #211, #200 ) ) ;
#518 = ADVANCED_FACE ( 'NONE', ( #79 ), #72, .T. ) ;
#519 = VECTOR ( 'NONE', #167, 39.37007874015748143 ) ;
#520 = AXIS2_PLACEMENT_3D ( 'NONE', #259, #355, #133 ) ;
#521 = DIRECTION ( 'NONE',  ( -1.000000000000000000, 0.000000000000000000, 0.000000000000000000 ) ) ;
#522 = DIMENSIONAL_EXPONENTS ( 1.000000000000000000, 0.000000000000000000, 0.000000000000000000, 0.000000000000000000, 0.000000000000000000, 0.000000000000000000, 0.000000000000000000 ) ;
#523 = CARTESIAN_POINT ( 'NONE',  ( -0.09499999999999998723, 0.03500000000000000333, 0.06250000000000000000 ) ) ;
#524 = LINE ( 'NONE', #279, #110 ) ;
#525 = MANIFOLD_SOLID_BREP ( 'Boss-Extrude1', #527 ) ;
#526 = CARTESIAN_POINT ( 'NONE',  ( -0.09499999999999998723, 0.03500000000000000333, 0.06250000000000000000 ) ) ;
#527 = CLOSED_SHELL ( 'NONE', ( #351, #102, #362, #64, #2, #391 ) ) ;
#528 = CARTESIAN_POINT ( 'NONE',  ( 0.1250787401574803004, 0.03500000000000000333, 0.06250000000000000000 ) ) ;
#529 = MANIFOLD_SOLID_BREP ( 'Mirror1', #177 ) ;
#530 = CARTESIAN_POINT ( 'NONE',  ( 0.1250787401574803004, 0.03500000000000000333, 0.06250000000000000000 ) ) ;
#531 = UNCERTAINTY_MEASURE_WITH_UNIT (LENGTH_MEASURE( 1.000000000000000082E-05 ), #99, 'distance_accuracy_value', 'NONE');
#532 = PRODUCT ( '2512Range 4', '2512Range 4', '', ( #535 ) ) ;
#533 = CARTESIAN_POINT ( 'NONE',  ( -0.1250000000000000000, 0.03500000000000000333, 0.06250000000000000000 ) ) ;
#534 = CARTESIAN_POINT ( 'NONE',  ( -0.09499999999999998723, 0.000000000000000000, 0.06250000000000000000 ) ) ;
#535 = PRODUCT_CONTEXT ( 'NONE', #497, 'mechanical' ) ;
#536 = CARTESIAN_POINT ( 'NONE',  ( -0.09499999999999998723, 0.03500000000000000333, -0.06250000000000000000 ) ) ;
#537 = PLANE ( 'NONE',  #152 ) ;
#538 = CARTESIAN_POINT ( 'NONE',  ( -0.09499999999999998723, 0.004724409448818897572, 0.06250000000000000000 ) ) ;
#539 = CARTESIAN_POINT ( 'NONE',  ( -0.1250000000000000000, 0.000000000000000000, 0.06250000000000000000 ) ) ;
#540 = FACE_OUTER_BOUND ( 'NONE', #301, .T. ) ;
#541 = VECTOR ( 'NONE', #39, 39.37007874015748143 ) ;
#542 = PRODUCT_DEFINITION_SHAPE ( 'NONE', 'NONE',  #345 ) ;
#543 = ORIENTED_EDGE ( 'NONE', *, *, #442, .F. ) ;
#544 = CARTESIAN_POINT ( 'NONE',  ( -0.1250000000000000000, 0.03500000000000000333, 0.06250000000000000000 ) ) ;
#545 = DIRECTION ( 'NONE',  ( 0.000000000000000000, -0.000000000000000000, -1.000000000000000000 ) ) ;
#546 = EDGE_CURVE ( 'NONE', #294, #498, #251, .T. ) ;
#547 = ORIENTED_EDGE ( 'NONE', *, *, #223, .F. ) ;
ENDSEC;
END-ISO-10303-21;
